<svg xmlns="http://www.w3.org/2000/svg" viewBox="0 0 256 256" fill="none">
  <defs>
    <linearGradient id="bgGrad" x1="0%" y1="0%" x2="100%" y2="100%">
      <stop offset="0%" style="stop-color:#10b981;stop-opacity:0.3" />
      <stop offset="100%" style="stop-color:#059669;stop-opacity:0.5" />
    </linearGradient>
    <linearGradient id="bodyGrad" x1="0%" y1="0%" x2="100%" y2="100%">
      <stop offset="0%" style="stop-color:#34d399" />
      <stop offset="100%" style="stop-color:#10b981" />
    </linearGradient>
  </defs>
  
  <circle cx="128" cy="128" r="120" fill="url(#bgGrad)" stroke="#34d399" stroke-width="2"/>
  
  <!-- Body - sprout -->
  <ellipse cx="128" cy="150" rx="40" ry="50" fill="url(#bodyGrad)"/>
  
  <!-- Eyes -->
  <circle cx="112" cy="138" r="10" fill="white"/>
  <circle cx="144" cy="138" r="10" fill="white"/>
  <circle cx="114" cy="140" r="5" fill="#1f2937"/>
  <circle cx="146" cy="140" r="5" fill="#1f2937"/>
  <circle cx="116" cy="138" r="2" fill="white"/>
  <circle cx="148" cy="138" r="2" fill="white"/>
  
  <!-- Smile -->
  <path d="M 115 160 Q 128 172 141 160" stroke="#1f2937" stroke-width="2.5" fill="none" stroke-linecap="round"/>
  
  <!-- Two leaves -->
  <path d="M 128 100 Q 150 75 165 85 Q 155 105 128 110" fill="#22c55e"/>
  <path d="M 128 100 Q 106 75 91 85 Q 101 105 128 110" fill="#22c55e"/>
  <path d="M 128 100 L 128 110" stroke="#15803d" stroke-width="2"/>
  
  <!-- Blush -->
  <ellipse cx="98" cy="155" rx="8" ry="5" fill="#fca5a5" opacity="0.6"/>
  <ellipse cx="158" cy="155" rx="8" ry="5" fill="#fca5a5" opacity="0.6"/>
  
  <!-- Sparkles -->
  <path d="M 55 70 L 60 80 L 55 90 L 50 80 Z" fill="#fcd34d"/>
  <path d="M 195 65 L 200 75 L 195 85 L 190 75 Z" fill="#fcd34d"/>
</svg>