<svg xmlns="http://www.w3.org/2000/svg" viewBox="0 0 256 256" fill="none">
  <defs>
    <linearGradient id="bgGrad" x1="0%" y1="0%" x2="100%" y2="100%">
      <stop offset="0%" style="stop-color:#10b981;stop-opacity:0.3" />
      <stop offset="100%" style="stop-color:#059669;stop-opacity:0.5" />
    </linearGradient>
    <linearGradient id="bodyGrad" x1="0%" y1="0%" x2="100%" y2="100%">
      <stop offset="0%" style="stop-color:#34d399" />
      <stop offset="100%" style="stop-color:#10b981" />
    </linearGradient>
  </defs>
  
  <circle cx="128" cy="128" r="120" fill="url(#bgGrad)" stroke="#34d399" stroke-width="2"/>
  
  <!-- Body - sapling -->
  <ellipse cx="128" cy="145" rx="50" ry="60" fill="url(#bodyGrad)"/>
  
  <!-- Eyes -->
  <circle cx="108" cy="130" r="12" fill="white"/>
  <circle cx="148" cy="130" r="12" fill="white"/>
  <circle cx="110" cy="132" r="6" fill="#1f2937"/>
  <circle cx="150" cy="132" r="6" fill="#1f2937"/>
  <circle cx="112" cy="130" r="2" fill="white"/>
  <circle cx="152" cy="130" r="2" fill="white"/>
  
  <!-- Happy smile -->
  <path d="M 112 158 Q 128 175 144 158" stroke="#1f2937" stroke-width="3" fill="none" stroke-linecap="round"/>
  
  <!-- Crown of leaves -->
  <path d="M 128 85 Q 160 55 180 70 Q 165 95 128 95" fill="#22c55e"/>
  <path d="M 128 85 Q 96 55 76 70 Q 91 95 128 95" fill="#22c55e"/>
  <path d="M 128 75 Q 128 50 145 55 Q 140 75 128 85 Q 116 75 111 55 Q 128 50 128 75" fill="#16a34a"/>
  
  <!-- Blush -->
  <ellipse cx="92" cy="150" rx="10" ry="6" fill="#fca5a5" opacity="0.6"/>
  <ellipse cx="164" cy="150" rx="10" ry="6" fill="#fca5a5" opacity="0.6"/>
  
  <!-- Sparkles -->
  <path d="M 45 55 L 52 68 L 45 81 L 38 68 Z" fill="#fcd34d"/>
  <path d="M 205 50 L 212 63 L 205 76 L 198 63 Z" fill="#fcd34d"/>
  <path d="M 180 180 L 187 193 L 180 206 L 173 193 Z" fill="#fcd34d"/>
</svg>